<svg width="124" height="60" viewBox="0 0 124 60" fill="none" xmlns="http://www.w3.org/2000/svg">
<g clip-path="url(#clip0_6002_277)">
<path d="M66.2113 35.0665H69.7493V29.6051C69.7493 26.3051 72.6847 26.363 74.2204 26.6139V22.8893C71.7711 22.6771 70.3131 23.3525 69.6521 24.6648H69.5744L69.5938 22.9472H66.1919V35.0665H66.2113Z" fill="#162136"/>
<path d="M84.562 35.0667H86.7781L90.4328 30.493L93.5237 35.0667H97.6448L92.785 28.0421L97.0422 22.9281H92.9405L88.0806 29.0263H88.0028L88.0417 16.8684H84.562V35.0667Z" fill="#162136"/>
<path d="M44.614 35.0666H47.355L51.5539 27.2701L55.6168 35.0666H58.3967L64.6368 22.928H60.4961L56.6665 30.6666L53.0313 22.928H50.0571L46.2275 30.7052L42.5923 22.928H38.4517L44.614 35.0666Z" fill="#162136"/>
<path d="M78.9443 21.1912C80.1468 21.1912 81.1216 20.2235 81.1216 19.0298C81.1216 17.8361 80.1468 16.8684 78.9443 16.8684C77.7419 16.8684 76.7671 17.8361 76.7671 19.0298C76.7671 20.2235 77.7419 21.1912 78.9443 21.1912Z" fill="#162136"/>
<path d="M80.694 22.928H77.1948V35.0666H80.694V22.928Z" fill="#162136"/>
<path d="M8.20331 23.9702C9.89456 23.9702 10.6916 24.279 11.9163 25.4948L18.4869 32.0176C18.6812 32.2106 18.7201 32.2878 18.759 32.4035C18.7784 32.4421 18.7784 32.5 18.7784 32.5386C18.7784 32.5772 18.7784 32.6351 18.759 32.6737C18.7201 32.7895 18.6812 32.8667 18.4869 33.0597L13.9963 37.5369C13.8019 37.7299 13.7242 37.7685 13.6075 37.8071C13.5686 37.8264 13.5103 37.8264 13.4714 37.8264C13.4326 37.8264 13.3742 37.8264 13.3354 37.8071C13.2187 37.7685 13.141 37.7299 12.9466 37.5369L0.213646 24.8965C-0.155706 24.5299 -0.0196293 23.9702 0.602437 23.9702H8.20331Z" fill="#00E05C"/>
<path d="M26.749 16C25.0577 16 24.2607 16.3088 23.036 17.5246L16.4654 24.0474C16.271 24.2404 16.2321 24.3176 16.1933 24.4333C16.1738 24.4719 16.1738 24.5298 16.1738 24.5684C16.1738 24.607 16.1738 24.6649 16.1933 24.7035C16.2321 24.8193 16.271 24.8965 16.4654 25.0895L20.956 29.5474C21.1504 29.7404 21.2281 29.779 21.3448 29.8176C21.3836 29.8369 21.442 29.8369 21.4808 29.8369C21.5197 29.8369 21.578 29.8369 21.6169 29.8176C21.7335 29.779 21.8113 29.7404 22.0057 29.5474L34.7386 16.907C35.108 16.5404 34.9719 15.9807 34.3498 15.9807H26.749V16Z" fill="#00E05C"/>
<path d="M107.579 31.0334C107.151 31.6702 106.257 32.4614 104.76 32.4614C103.01 32.4614 101.766 31.4579 101.494 30.0106H111C111 29.7597 111 29.393 111 29.0456C111 25.5334 108.453 22.7158 104.682 22.7158C100.988 22.7158 98.1309 25.4948 98.1309 29.0456C98.1309 32.5772 100.93 35.3755 104.682 35.3755C107.481 35.3755 109.173 34.2755 110.261 32.8667L107.579 31.0334ZM104.488 25.4369C106.101 25.4369 107.229 26.3246 107.617 27.5983H101.338C101.727 26.3246 102.835 25.4369 104.488 25.4369Z" fill="#162136"/>
</g>
<defs>
<clipPath id="clip0_6002_277">
<rect width="111" height="22" fill="white" transform="translate(0 16)"/>
</clipPath>
</defs>
</svg>
